<svg xmlns="http://www.w3.org/2000/svg" viewBox="0 0 658 658"><defs><style>.cls-1{fill:none;}.cls-2{fill:#1d1d1b;}</style></defs><g id="Capa_2" data-name="Capa 2"><g id="Capa_1-2" data-name="Capa 1"><path class="cls-1" d="M329,28.8C163.47,28.8,28.8,163.47,28.8,329S163.47,629.21,329,629.21,629.21,494.53,629.21,329,494.54,28.8,329,28.8Zm43.65,566.35,3.64-4,11.43-13.27L401.35,562l10-9.58,11.05-5.9,12.53-7,10.33-7.38,9.58-8.1L465.12,513l10.69-16.13,4.42-11.06,3.13-12.9L485,460v-8.94l-1.26-12.25-.76-11.4-1.18-7.74-5.46.27-12.3,2-11.89,2.21-10.64,2.14-12.09,1.94-5.95,1.24-3.32.83H410.08l-2.35-.69-5.46-1.18-5-2-4.35-.76-4.8-2.12-8.66-5.67-4.33-4.51-3.41-4.8-2.49-5.34-1.38-5.07-.64-5.25.27-11.06,1.94-11.33,5-14.1,5.53-14.65L386,326.58l6.92-19.07,6.77-21.84,2.9-12,2.63-13.13.19-2.52c1.33.56,2.65,1.14,3.94,1.8l28,14.29c-7.62-26.48-20.69-41.38-31-49.47l-.41-4.32-.23-4.35-2.14-8.37-2.21-6.35-4.22-8.71L392.6,186l-6.29-6.49L380,174.75l-2-4.59L375.64,161l-4.14-7.83-4.15-5.9-4.51-4.1-5.19-2.24-9.58.12-10.67,4.7-11.61,10.13-8.66,11.25-8.48,11.61L303.12,191l-3.5,3.14-9.58,7-11.47,10.69-15.21,12.85-13.68,13-15.07,15.2L219.55,267.7,197.15,288,185,298.48l-10.87,9.75L169,309l-11.06,1.11-20.27-.19-27.92-1.67-11.52.25-12,2-10.61,2.24-12.72,4.36-1.64.8c6.74-142,124-255,267.62-255,148,0,267.93,120,267.93,267.93C596.78,463.84,499.79,574.24,372.65,595.15Z"/><path class="cls-2" d="M328.85,62.85c-143.64,0-260.88,113-267.62,255l1.64-.8,12.72-4.36,10.61-2.24,12-2,11.52-.25,27.92,1.67,20.27.19L169,309l5.16-.75L185,298.48,197.15,288l22.4-20.27,15.06-14.79,15.07-15.2,13.68-13,15.21-12.85L290,201.17l9.58-7,3.5-3.14,5.53-12.34,8.48-11.61,8.66-11.25L337.4,145.7l10.67-4.7,9.58-.12,5.19,2.24,4.51,4.1,4.15,5.9,4.14,7.83,2.35,9.21,2,4.59,6.29,4.77L392.6,186l4.49,6.5,4.22,8.71,2.21,6.35,2.14,8.37.23,4.35.41,4.32c10.33,8.09,23.4,23,31,49.47l-28-14.29c-1.29-.66-2.61-1.24-3.94-1.8l-.19,2.52-2.63,13.13-2.9,12-6.77,21.84L386,326.58l-6.08,15.21-5.53,14.65-5,14.1-1.94,11.33-.27,11.06.64,5.25,1.38,5.07,2.49,5.34,3.41,4.8,4.33,4.51,8.66,5.67,4.8,2.12,4.35.76,5,2,5.46,1.18,2.35.69h10.09l3.32-.83,5.95-1.24,12.09-1.94,10.64-2.14L464.06,422l12.3-2,5.46-.27,1.18,7.74.76,11.4L485,451.07V460l-1.66,12.9-3.13,12.9-4.42,11.06L465.12,513,454.8,524.06l-9.58,8.1-10.33,7.38-12.53,7-11.05,5.9-10,9.58-13.63,15.85-11.43,13.27-3.64,4c127.14-20.91,224.13-131.31,224.13-264.37C596.78,182.81,476.82,62.85,328.85,62.85Z"/><path class="cls-2" d="M561.64,96.36A329,329,0,0,0,96.36,561.64,329,329,0,0,0,561.64,96.36ZM329,629.21C163.47,629.21,28.8,494.53,28.8,329S163.47,28.8,329,28.8,629.21,163.47,629.21,329,494.54,629.21,329,629.21Z"/></g></g></svg>