<svg xmlns="http://www.w3.org/2000/svg" viewBox="0 0 735.66 169.8"><defs><style>.cls-1{fill:#fff;}</style></defs><g id="Capa_2" data-name="Capa 2"><g id="Capa_1-2" data-name="Capa 1"><path class="cls-1" d="M174.28,112.6c0-19.6,13.4-27.8,42-30.8l26.8-2.8c0-13.6-4.4-18-18-18-12.8,0-16.4,6-16.4,14.2h-30.4c0-21.8,8.8-36.8,46-36.8,43.59,0,50,19.6,50,46v57.8h-14l-7.4-16c-7,11.6-18,17.8-36.2,17.8C192.68,144,174.28,134,174.28,112.6Zm48.8,9.4c14,0,20.2-8.2,20-22.6l-20,2.4c-12.4,1.4-16.2,4.8-16.2,9.6C206.88,117.6,211.68,122,223.08,122Z"/><path class="cls-1" d="M292.07,40.2h14.2l7.4,14c5-8.4,16.6-15.8,36-15.8,33.6,0,40,20,40,47.6v56.2h-31.4V84.8c0-13.8-2.6-20.4-17-20.4-13.6,0-18,7-18,20.4v57.4h-31.2Z"/><path class="cls-1" d="M403.67,112.6c0-19.6,13.4-27.8,42-30.8l26.8-2.8c0-13.6-4.4-18-18-18-12.8,0-16.4,6-16.4,14.2h-30.4c0-21.8,8.8-36.8,46-36.8,43.6,0,50,19.6,50,46v57.8h-14l-7.4-16c-7,11.6-18,17.8-36.2,17.8C422.07,144,403.67,134,403.67,112.6Zm48.8,9.4c14,0,20.2-8.2,20-22.6l-20,2.4c-12.4,1.4-16.2,4.8-16.2,9.6C436.27,117.6,441.07,122,452.47,122Z"/><path class="cls-1" d="M517.47,91c0-26.2,9-52.6,41-52.6,15.8,0,25.8,5.4,30.2,11.6V.8h31.4V142.2h-14l-7.6-16c-5.4,8.2-17.2,17.8-37,17.8C527.67,144,517.47,117,517.47,91Zm51.6,27.2c17.2,0,20.2-11,20.2-27.2,0-15.6-2.2-27.2-20-27.2-17,0-20,11.2-20,27.2S552.27,118.2,569.07,118.2Z"/><path class="cls-1" d="M635.67,112.6c0-19.6,13.4-27.8,42-30.8l26.8-2.8c0-13.6-4.4-18-18-18-12.8,0-16.39,6-16.39,14.2H639.66c0-21.8,8.81-36.8,46-36.8,43.6,0,50,19.6,50,46v85.4l-2.75-8.4a117.81,117.81,0,0,0-18.65-35.2h0c-7,11.6-18,17.8-36.2,17.8C654.07,144,635.67,134,635.67,112.6Zm48.79,9.4c14,0,20.2-8.2,20-22.6l-20,2.4c-12.39,1.4-16.2,4.8-16.2,9.6C668.26,117.6,673.07,122,684.46,122Z"/><path class="cls-1" d="M0,0,4.41,11.31A128,128,0,0,0,24.32,45.5h0c5.18-9.23,16.21-17.56,35.13-17.56,14,0,25.67,4,33.1,16.66,3.38-5.85,13.29-16.66,32.65-16.66,32.2,0,37.61,21.84,37.61,47.74v69.13H127V75c0-9.46-1.8-17.34-13.73-17.34S99.08,65.54,99.08,75v69.81H63.73V75c0-9.46-1.81-17.34-14-17.34-11.93,0-14.63,7.88-14.63,17.34v69.81H0Z"/></g></g></svg>