<svg xmlns="http://www.w3.org/2000/svg" viewBox="0 0 515.5 239.33"><defs><style>.cls-1{fill:#fff;}</style></defs><g id="Capa_2" data-name="Capa 2"><g id="Capa_1-2" data-name="Capa 1"><path class="cls-1" d="M360,202.37H315V120.22c0-19.75-3.72-29.2-24.33-29.2-19.46,0-25.76,10-25.76,29.2v82.15H220.28v-146H240.6l10.59,20c7.16-12,23.76-22.61,51.52-22.61,48.09,0,57.25,28.62,57.25,68.12"/><path class="cls-1" d="M368.66,129.09c0-37.5,12.89-75.28,58.68-75.28,22.61,0,36.93,7.73,43.22,16.6V0H515.5V239.33L510.8,228a268.34,268.34,0,0,0-26.21-48.5h0c-7.73,11.73-24.62,25.47-52.95,25.47C383.26,204.94,368.66,166.3,368.66,129.09ZM442.51,168c24.62,0,28.91-15.75,28.91-38.93,0-22.33-3.15-38.93-28.62-38.93-24.33,0-28.62,16-28.62,38.93S418.47,168,442.51,168Z"/><path class="cls-1" d="M0,18.3,5.61,32.68a162.86,162.86,0,0,0,25.3,43.46h0C37.5,64.4,51.52,53.81,75.56,53.81c17.75,0,32.63,5.15,42.08,21.18,4.29-7.44,16.89-21.18,41.5-21.18,40.93,0,47.8,27.77,47.8,60.68v87.88H161.43V113.63c0-12-2.29-22-17.46-22s-18,10-18,22v88.74H81V113.63c0-12-2.29-22-17.74-22-15.17,0-18.61,10-18.61,22v88.74H0Z"/></g></g></svg>